<svg width="1305" height="298" viewBox="0 0 1305 298" fill="none" xmlns="http://www.w3.org/2000/svg">
<path d="M334 107.455V48.3848C334 46.6186 334.476 45.2507 335.437 44.2898C336.407 43.3201 337.74 42.5236 339.428 41.9003C343.047 40.7055 346.891 39.9264 350.96 39.5627C355.012 39.1905 358.648 39 361.86 39C368.457 39 374.431 39.8052 379.79 41.4068C385.14 43.0084 389.737 45.4845 393.573 48.8263C397.408 52.1681 400.369 56.3584 402.464 61.3884C404.559 66.4358 405.607 72.4268 405.607 79.3528C405.607 86.1057 404.602 91.9928 402.585 97.0142C400.568 102.044 397.685 106.26 393.936 109.689C390.187 113.109 385.694 115.663 380.456 117.351C375.227 119.039 369.444 119.879 363.089 119.879C361.652 119.879 359.999 119.835 358.155 119.758C356.31 119.68 354.388 119.498 352.406 119.229C350.423 118.961 348.449 118.641 346.484 118.277C344.502 117.905 342.666 117.385 340.987 116.727C336.338 114.961 334.009 111.862 334.009 107.447L334 107.455ZM355.99 57.3453V101.404C356.942 101.568 358.094 101.707 359.453 101.828C360.812 101.958 362.068 102.018 363.211 102.018C366.102 102.018 368.751 101.594 371.158 100.754C373.574 99.9145 375.643 98.6072 377.383 96.8324C379.106 95.0662 380.456 92.7633 381.426 89.941C382.387 87.1186 382.863 83.7249 382.863 79.7684C382.863 72.1844 381.097 66.479 377.556 62.6351C374.015 58.7825 369.288 56.8518 363.358 56.8518C362.163 56.8518 360.96 56.8951 359.739 56.9731C358.518 57.051 357.271 57.1808 355.999 57.3453H355.99ZM433.64 46.8524C434.756 45.32 436.254 43.9261 438.159 42.6708C440.064 41.4155 442.41 40.7921 445.206 40.7921C448.496 40.7921 451.18 41.4587 453.24 42.792C455.292 44.1426 457.249 46.6619 459.11 50.3674L469.603 71.4918H470.339C471.534 68.9032 472.573 66.5223 473.464 64.3579C474.356 62.2022 475.222 60.0551 476.062 57.9081C476.901 55.761 477.793 53.5274 478.719 51.1985C479.646 48.8783 480.702 46.2117 481.897 43.1989C483.421 42.463 485.109 41.8743 486.961 41.4414C488.814 41.0086 490.589 40.7921 492.286 40.7921C495.247 40.7921 497.757 41.58 499.809 43.147C501.87 44.7053 502.9 47.0342 502.9 50.1249C502.9 51.1552 502.684 52.3932 502.251 53.8304C501.818 55.2675 500.848 57.4492 499.35 60.3495C497.853 63.2584 495.636 67.1976 492.71 72.1757C489.792 77.1538 485.836 83.6383 480.849 91.6292V117.342C479.897 117.585 478.468 117.836 476.564 118.078C474.642 118.32 472.754 118.45 470.902 118.45C467.032 118.45 464.123 117.801 462.166 116.502C460.21 115.212 459.231 112.451 459.231 108.208V91.1444C457.119 88.019 454.842 84.556 452.392 80.7727C449.942 76.9807 447.544 73.0934 445.206 69.1196C442.851 65.1458 440.652 61.2499 438.618 57.4146C436.583 53.5793 434.921 50.0643 433.648 46.8524H433.64ZM538.794 108.33V45.0603C539.989 43.3634 541.807 42.0907 544.257 41.2423C546.707 40.4025 549.313 39.9783 552.075 39.9783C555.2 39.9783 558.178 40.4804 561.001 41.4761C563.814 42.463 566.065 44.6794 567.771 48.1337L580.428 73.6561C581.71 76.2534 582.844 78.7208 583.857 81.041C584.878 83.3699 585.96 86.0624 587.112 89.1098L587.796 88.9887C587.467 84.4175 587.25 79.8549 587.147 75.3011C587.043 70.7559 586.991 66.2107 586.991 61.6828V41.173C587.943 40.9306 589.363 40.6709 591.259 40.4025C593.146 40.1341 595.016 39.9956 596.869 39.9956C600.583 39.9956 603.405 40.6536 605.336 41.9782C607.267 43.2941 608.236 46.0126 608.236 50.1336V115.195C607.042 116.39 605.336 117.299 603.12 117.922C600.895 118.528 598.211 118.84 595.068 118.84C591.943 118.84 588.999 118.381 586.246 117.455C583.484 116.528 581.216 114.295 579.441 110.762L566.897 85.2399C565.615 82.6427 564.481 80.1666 563.468 77.8204C562.464 75.4656 561.356 72.7904 560.161 69.7862L559.425 69.9074C559.754 74.4786 559.945 79.1191 559.988 83.8461C560.022 88.5558 560.04 93.1789 560.04 97.7154V117.368C559.087 117.61 557.676 117.862 555.789 118.104C553.893 118.346 552.014 118.476 550.162 118.476C548.3 118.476 546.655 118.355 545.244 118.104C543.824 117.862 542.655 117.351 541.729 116.589C540.803 115.827 540.084 114.797 539.565 113.498C539.045 112.2 538.794 110.485 538.794 108.347V108.33ZM644.927 110.736C644.927 109.542 645.091 108.356 645.42 107.187C645.749 106.001 646.139 104.607 646.581 103.005C647.169 100.746 647.983 97.9232 649.022 94.5554C650.078 91.1703 651.238 87.5169 652.52 83.6037C653.801 79.6905 655.143 75.6647 656.563 71.5264C657.983 67.3881 659.324 63.4922 660.606 59.8214C661.887 56.1506 663.047 52.8867 664.103 50.0297C665.16 47.1554 665.973 44.9651 666.545 43.4413C667.982 42.6189 670.164 41.8224 673.064 41.0345C675.973 40.2467 678.908 39.8571 681.869 39.8571C686.059 39.8571 689.79 40.4804 693.046 41.7185C696.301 42.9478 698.405 44.8612 699.357 47.4671C700.881 51.8218 702.526 56.9211 704.292 62.7563C706.058 68.5828 707.833 74.5912 709.599 80.79C711.382 86.9888 713.114 93.1096 714.802 99.1526C716.49 105.187 717.945 110.529 719.174 115.178C718.144 116.372 716.62 117.325 714.603 118.026C712.586 118.719 710.196 119.065 707.434 119.065C705.417 119.065 703.712 118.9 702.318 118.571C700.915 118.242 699.764 117.74 698.872 117.056C697.989 116.381 697.271 115.489 696.708 114.399C696.154 113.308 695.677 112.044 695.271 110.607L692.985 101.888H670.12C669.462 104.399 668.796 107.005 668.121 109.706C667.445 112.399 666.753 115.022 666.043 117.576C664.848 117.983 663.601 118.338 662.303 118.632C661.004 118.909 659.428 119.056 657.576 119.056C653.299 119.056 650.122 118.329 648.035 116.875C645.957 115.411 644.927 113.36 644.927 110.719V110.736ZM673.765 84.7811H689.461C688.267 80.2099 687.063 75.7686 685.86 71.4398C684.639 67.1197 683.514 63.2238 682.483 59.7521H681.748C680.553 63.3017 679.22 67.2496 677.756 71.5957C676.293 75.9331 674.96 80.3224 673.765 84.7811ZM753.449 110.615L757.155 46.0992C757.821 44.9824 759.302 43.8049 761.587 42.5496C763.873 41.2943 767.068 40.6709 771.18 40.6709C775.682 40.6709 779.197 41.3635 781.725 42.7487C784.253 44.1339 786.097 46.3849 787.24 49.5189C787.993 51.5361 788.815 53.8477 789.716 56.4623C790.616 59.0768 791.517 61.778 792.408 64.5657C793.3 67.3448 794.166 70.0979 795.006 72.8423C795.845 75.5868 796.598 78.0628 797.256 80.2792H797.871C799.888 73.206 801.914 66.3492 803.949 59.7175C805.983 53.0858 807.853 47.545 809.559 43.095C810.84 42.437 812.459 41.8743 814.424 41.3895C816.407 40.922 818.606 40.6882 821.03 40.6882C825.151 40.6882 828.519 41.2942 831.133 42.515C833.757 43.7184 835.289 45.4585 835.739 47.7355C836.068 49.4237 836.415 52.0209 836.795 55.5186C837.168 59.0249 837.575 62.9641 838.008 67.3448C838.432 71.7255 838.847 76.3746 839.271 81.2834C839.678 86.1836 840.077 90.8847 840.466 95.3952C840.864 99.9058 841.185 104.035 841.436 107.784C841.678 111.533 841.843 114.416 841.929 116.433C840.492 117.256 838.986 117.862 837.41 118.26C835.852 118.649 833.852 118.84 831.419 118.84C828.207 118.84 825.515 118.294 823.333 117.204C821.143 116.113 819.965 113.966 819.801 110.754C819.307 101.568 818.996 93.3088 818.848 85.9758C818.693 78.6429 818.493 72.4874 818.251 67.5006H817.636C816.814 70.7905 815.593 74.9288 813.966 79.9069C812.338 84.9023 810.39 91.2656 808.13 99.0141C807.013 99.9664 805.602 100.702 803.897 101.23C802.183 101.767 800.174 102.036 797.871 102.036C794.824 102.036 792.313 101.655 790.33 100.893C788.348 100.131 787.075 98.8236 786.495 96.9709C784.149 89.5514 782.218 83.5517 780.695 78.9546C779.171 74.3574 777.976 70.3403 777.11 66.8773H776.496C776.253 71.8554 776.063 76.3833 775.933 80.461C775.812 84.5387 775.734 88.5211 775.691 92.4084C775.656 96.3129 775.569 100.235 775.448 104.183C775.318 108.139 775.128 112.529 774.885 117.342C773.769 117.749 772.331 118.104 770.565 118.398C768.799 118.675 767.024 118.823 765.258 118.823C761.544 118.823 758.652 118.234 756.575 117.065C754.488 115.896 753.449 113.741 753.449 110.615ZM881.52 107.94V41.1557C882.473 40.9912 883.953 40.7575 885.97 40.4545C887.996 40.1341 889.935 39.9783 891.788 39.9783C893.719 39.9783 895.433 40.1341 896.922 40.4545C898.403 40.7575 899.641 41.2942 900.645 42.0561C901.649 42.818 902.411 43.8655 902.93 45.1988C903.45 46.5494 903.701 48.3069 903.701 50.4886V117.342C902.749 117.585 901.294 117.836 899.329 118.078C897.346 118.32 895.39 118.45 893.459 118.45C891.528 118.45 889.814 118.312 888.325 118.026C886.836 117.732 885.589 117.204 884.585 116.442C883.581 115.68 882.819 114.632 882.3 113.299C881.78 111.948 881.529 110.165 881.529 107.94H881.52ZM940.331 110.736C940.331 109.542 940.496 108.356 940.824 107.187C941.153 106.001 941.543 104.607 942.002 103.005C942.573 100.746 943.387 97.9232 944.443 94.5554C945.482 91.1703 946.642 87.5169 947.924 83.6037C949.205 79.6905 950.556 75.6647 951.984 71.5264C953.404 67.3881 954.746 63.4922 956.027 59.8214C957.309 56.1506 958.469 52.8867 959.525 50.0297C960.564 47.1554 961.378 44.9651 961.949 43.4413C963.403 42.6189 965.576 41.8224 968.468 41.0345C971.377 40.2467 974.312 39.8571 977.273 39.8571C981.48 39.8571 985.212 40.4804 988.467 41.7185C991.714 42.9478 993.809 44.8612 994.761 47.4671C996.285 51.8218 997.938 56.9211 999.713 62.7563C1001.48 68.5828 1003.25 74.5912 1005.02 80.79C1006.79 86.9888 1008.52 93.1096 1010.21 99.1526C1011.89 105.187 1013.36 110.529 1014.6 115.178C1013.57 116.372 1012.05 117.325 1010.03 118.026C1008.01 118.719 1005.62 119.065 1002.86 119.065C1000.85 119.065 999.142 118.9 997.731 118.571C996.337 118.242 995.194 117.74 994.302 117.056C993.41 116.381 992.692 115.489 992.138 114.399C991.575 113.308 991.09 112.044 990.683 110.607L988.398 101.888H965.533C964.875 104.399 964.209 107.005 963.533 109.706C962.858 112.399 962.165 115.022 961.455 117.576C960.261 117.983 959.023 118.338 957.733 118.632C956.434 118.909 954.858 119.056 953.006 119.056C948.72 119.056 945.534 118.329 943.465 116.875C941.379 115.411 940.34 113.36 940.34 110.719L940.331 110.736ZM969.187 84.7811H984.883C983.688 80.2099 982.485 75.7686 981.264 71.4398C980.043 67.1197 978.926 63.2238 977.905 59.7521H977.152C975.957 63.3017 974.632 67.2496 973.178 71.5957C971.715 75.9331 970.381 80.3224 969.187 84.7811ZM1047.64 107.576C1047.64 104.035 1048.74 101.083 1050.95 98.7197C1053.15 96.3562 1056.14 95.1701 1059.93 95.1701C1063.72 95.1701 1066.71 96.3562 1068.89 98.7197C1071.07 101.083 1072.16 104.035 1072.16 107.576C1072.16 111.126 1071.07 114.087 1068.89 116.45C1066.71 118.814 1063.72 120 1059.93 120C1056.14 120 1053.15 118.814 1050.95 116.45C1048.75 114.087 1047.64 111.126 1047.64 107.576ZM1105.33 110.736C1105.33 109.542 1105.49 108.356 1105.82 107.187C1106.15 106.001 1106.54 104.607 1107 103.005C1107.57 100.746 1108.38 97.9232 1109.44 94.5554C1110.5 91.1703 1111.66 87.5169 1112.94 83.6037C1114.22 79.6905 1115.56 75.6647 1116.98 71.5264C1118.4 67.3881 1119.74 63.4922 1121.02 59.8214C1122.3 56.1506 1123.46 52.8867 1124.52 50.0297C1125.56 47.1554 1126.38 44.9651 1126.96 43.4413C1128.4 42.6189 1130.57 41.8224 1133.46 41.0345C1136.37 40.2467 1139.31 39.8571 1142.27 39.8571C1146.48 39.8571 1150.21 40.4804 1153.46 41.7185C1156.72 42.9478 1158.81 44.8612 1159.76 47.4671C1161.28 51.8218 1162.93 56.9211 1164.71 62.7563C1166.47 68.5828 1168.25 74.5912 1170.02 80.79C1171.78 86.9888 1173.51 93.1096 1175.2 99.1526C1176.89 105.187 1178.35 110.529 1179.6 115.178C1178.57 116.372 1177.05 117.325 1175.03 118.026C1173 118.719 1170.61 119.065 1167.86 119.065C1165.84 119.065 1164.14 118.9 1162.73 118.571C1161.33 118.242 1160.19 117.74 1159.3 117.056C1158.41 116.381 1157.69 115.489 1157.13 114.399C1156.58 113.308 1156.09 112.044 1155.68 110.607L1153.39 101.888H1130.53C1129.87 104.399 1129.2 107.005 1128.53 109.706C1127.85 112.399 1127.16 115.022 1126.45 117.576C1125.26 117.983 1124.03 118.338 1122.73 118.632C1121.43 118.909 1119.85 119.056 1118 119.056C1113.72 119.056 1110.53 118.329 1108.46 116.875C1106.37 115.411 1105.34 113.36 1105.34 110.719L1105.33 110.736ZM1134.18 84.7811H1149.88C1148.68 80.2099 1147.48 75.7686 1146.26 71.4398C1145.06 67.1197 1143.93 63.2238 1142.9 59.7521H1142.15C1140.95 63.3017 1139.63 67.2496 1138.17 71.5957C1136.71 75.9331 1135.38 80.3224 1134.18 84.7811ZM1215.54 107.949V41.1644C1216.49 40.9999 1217.97 40.7661 1219.99 40.4631C1222 40.1428 1223.94 39.987 1225.8 39.987C1227.74 39.987 1229.44 40.1428 1230.92 40.4631C1232.41 40.7661 1233.66 41.3029 1234.66 42.0648C1235.67 42.8266 1236.43 43.8742 1236.95 45.2075C1237.47 46.558 1237.72 48.3155 1237.72 50.4972V117.351C1236.77 117.593 1235.3 117.844 1233.32 118.087C1231.35 118.329 1229.4 118.459 1227.45 118.459C1225.52 118.459 1223.81 118.32 1222.33 118.035C1220.84 117.74 1219.6 117.212 1218.59 116.45C1217.59 115.689 1216.83 114.641 1216.31 113.308C1215.79 111.957 1215.54 110.174 1215.54 107.949Z" fill="#04345C"/>
<path d="M276.658 148.689H238.338C239.388 208.169 242.958 213.429 228.418 229.939C211.188 241.639 197.938 240.979 147.968 238.819V280.309C185.448 279.799 210.778 281.849 239.068 288.319C264.028 295.449 286.338 299.939 292.438 293.619C298.758 287.519 294.248 274.979 288.008 249.739C280.548 218.299 276.138 189.169 276.648 151.689" fill="#76B900"/>
<path d="M18.8282 147.949H57.1482C56.0982 88.4693 52.5282 83.2093 67.0682 66.6993C84.2982 54.9993 97.5482 55.6593 147.518 57.8193V16.3293C110.038 16.8393 84.7082 14.7893 56.4182 8.3193C31.4582 1.1893 9.14823 -3.3007 3.04823 3.0193C-3.27177 9.1193 1.23823 21.6593 7.47823 46.8993C14.9382 78.3393 19.3482 107.469 18.8382 144.949" fill="#76B900"/>
<path d="M265.529 142.859C254.919 142.859 246.789 142.909 237.829 142.859C237.079 105.129 240.639 77.8393 228.489 66.7293C217.379 54.5893 190.619 58.1593 152.889 57.4093V29.5793C182.669 29.3393 212.069 25.7293 231.719 23.4393C251.659 21.1493 263.669 20.3393 269.199 26.0193C274.879 31.5493 274.079 43.5693 271.789 63.4993C269.499 83.1393 265.729 110.699 265.499 140.489" fill="#04345C"/>
<path d="M29.6183 153.949C40.2283 153.949 48.3583 153.899 57.3183 153.949C58.0683 191.679 54.5084 218.949 66.6584 230.059C77.7684 242.199 104.528 238.629 142.258 239.379V267.209C112.478 267.449 83.0783 271.059 63.4283 273.349C43.4883 275.639 31.4783 276.449 25.9483 270.769C20.2683 265.239 21.0684 253.219 23.3584 233.289C25.6484 213.649 29.4183 186.089 29.6483 156.299" fill="#04345C"/>
<path fill-rule="evenodd" clip-rule="evenodd" d="M183.668 173.509C183.668 178.809 179.378 183.099 174.078 183.099H121.868C116.568 183.099 112.278 178.809 112.278 173.509V121.299C112.278 115.999 116.568 111.709 121.868 111.709H174.078C179.368 111.709 183.668 115.999 183.668 121.299V173.509Z" fill="#76B900"/>
<path d="M571.5 251.188H579.312C579.062 254.167 578.229 256.823 576.812 259.156C575.396 261.469 573.406 263.292 570.844 264.625C568.281 265.958 565.167 266.625 561.5 266.625C558.688 266.625 556.156 266.125 553.906 265.125C551.656 264.104 549.729 262.667 548.125 260.812C546.521 258.938 545.292 256.677 544.438 254.031C543.604 251.385 543.188 248.427 543.188 245.156V241.375C543.188 238.104 543.615 235.146 544.469 232.5C545.344 229.854 546.594 227.594 548.219 225.719C549.844 223.823 551.792 222.375 554.062 221.375C556.354 220.375 558.927 219.875 561.781 219.875C565.406 219.875 568.469 220.542 570.969 221.875C573.469 223.208 575.406 225.052 576.781 227.406C578.177 229.76 579.031 232.458 579.344 235.5H571.531C571.323 233.542 570.865 231.865 570.156 230.469C569.469 229.073 568.448 228.01 567.094 227.281C565.74 226.531 563.969 226.156 561.781 226.156C559.99 226.156 558.427 226.49 557.094 227.156C555.76 227.823 554.646 228.802 553.75 230.094C552.854 231.385 552.177 232.979 551.719 234.875C551.281 236.75 551.062 238.896 551.062 241.312V245.156C551.062 247.448 551.26 249.531 551.656 251.406C552.073 253.26 552.698 254.854 553.531 256.188C554.385 257.521 555.469 258.552 556.781 259.281C558.094 260.01 559.667 260.375 561.5 260.375C563.729 260.375 565.531 260.021 566.906 259.312C568.302 258.604 569.354 257.573 570.062 256.219C570.792 254.844 571.271 253.167 571.5 251.188ZM593.25 238.625V266H585.719V232.188H592.906L593.25 238.625ZM603.594 231.969L603.531 238.969C603.073 238.885 602.573 238.823 602.031 238.781C601.51 238.74 600.99 238.719 600.469 238.719C599.177 238.719 598.042 238.906 597.062 239.281C596.083 239.635 595.26 240.156 594.594 240.844C593.948 241.51 593.448 242.323 593.094 243.281C592.74 244.24 592.531 245.312 592.469 246.5L590.75 246.625C590.75 244.5 590.958 242.531 591.375 240.719C591.792 238.906 592.417 237.312 593.25 235.938C594.104 234.562 595.167 233.49 596.438 232.719C597.729 231.948 599.219 231.562 600.906 231.562C601.365 231.562 601.854 231.604 602.375 231.688C602.917 231.771 603.323 231.865 603.594 231.969ZM622.594 266.625C620.094 266.625 617.833 266.219 615.812 265.406C613.812 264.573 612.104 263.417 610.688 261.938C609.292 260.458 608.219 258.719 607.469 256.719C606.719 254.719 606.344 252.562 606.344 250.25V249C606.344 246.354 606.729 243.958 607.5 241.812C608.271 239.667 609.344 237.833 610.719 236.312C612.094 234.771 613.719 233.594 615.594 232.781C617.469 231.969 619.5 231.562 621.688 231.562C624.104 231.562 626.219 231.969 628.031 232.781C629.844 233.594 631.344 234.74 632.531 236.219C633.74 237.677 634.635 239.417 635.219 241.438C635.823 243.458 636.125 245.688 636.125 248.125V251.344H610V245.938H628.688V245.344C628.646 243.99 628.375 242.719 627.875 241.531C627.396 240.344 626.656 239.385 625.656 238.656C624.656 237.927 623.323 237.562 621.656 237.562C620.406 237.562 619.292 237.833 618.312 238.375C617.354 238.896 616.552 239.656 615.906 240.656C615.26 241.656 614.76 242.865 614.406 244.281C614.073 245.677 613.906 247.25 613.906 249V250.25C613.906 251.729 614.104 253.104 614.5 254.375C614.917 255.625 615.521 256.719 616.312 257.656C617.104 258.594 618.062 259.333 619.188 259.875C620.312 260.396 621.594 260.656 623.031 260.656C624.844 260.656 626.458 260.292 627.875 259.562C629.292 258.833 630.521 257.802 631.562 256.469L635.531 260.312C634.802 261.375 633.854 262.396 632.688 263.375C631.521 264.333 630.094 265.115 628.406 265.719C626.74 266.323 624.802 266.625 622.594 266.625ZM661.062 259.219V243.094C661.062 241.885 660.844 240.844 660.406 239.969C659.969 239.094 659.302 238.417 658.406 237.938C657.531 237.458 656.427 237.219 655.094 237.219C653.865 237.219 652.802 237.427 651.906 237.844C651.01 238.26 650.312 238.823 649.812 239.531C649.312 240.24 649.062 241.042 649.062 241.938H641.562C641.562 240.604 641.885 239.312 642.531 238.062C643.177 236.812 644.115 235.698 645.344 234.719C646.573 233.74 648.042 232.969 649.75 232.406C651.458 231.844 653.375 231.562 655.5 231.562C658.042 231.562 660.292 231.99 662.25 232.844C664.229 233.698 665.781 234.99 666.906 236.719C668.052 238.427 668.625 240.573 668.625 243.156V258.188C668.625 259.729 668.729 261.115 668.938 262.344C669.167 263.552 669.49 264.604 669.906 265.5V266H662.188C661.833 265.188 661.552 264.156 661.344 262.906C661.156 261.635 661.062 260.406 661.062 259.219ZM662.156 245.438L662.219 250.094H656.812C655.417 250.094 654.188 250.229 653.125 250.5C652.062 250.75 651.177 251.125 650.469 251.625C649.76 252.125 649.229 252.729 648.875 253.438C648.521 254.146 648.344 254.948 648.344 255.844C648.344 256.74 648.552 257.562 648.969 258.312C649.385 259.042 649.99 259.615 650.781 260.031C651.594 260.448 652.573 260.656 653.719 260.656C655.26 260.656 656.604 260.344 657.75 259.719C658.917 259.073 659.833 258.292 660.5 257.375C661.167 256.438 661.521 255.552 661.562 254.719L664 258.062C663.75 258.917 663.323 259.833 662.719 260.812C662.115 261.792 661.323 262.729 660.344 263.625C659.385 264.5 658.229 265.219 656.875 265.781C655.542 266.344 654 266.625 652.25 266.625C650.042 266.625 648.073 266.188 646.344 265.312C644.615 264.417 643.26 263.219 642.281 261.719C641.302 260.198 640.812 258.479 640.812 256.562C640.812 254.771 641.146 253.188 641.812 251.812C642.5 250.417 643.5 249.25 644.812 248.312C646.146 247.375 647.771 246.667 649.688 246.188C651.604 245.688 653.792 245.438 656.25 245.438H662.156ZM692 232.188V237.688H672.938V232.188H692ZM678.438 223.906H685.969V256.656C685.969 257.698 686.115 258.5 686.406 259.062C686.719 259.604 687.146 259.969 687.688 260.156C688.229 260.344 688.865 260.438 689.594 260.438C690.115 260.438 690.615 260.406 691.094 260.344C691.573 260.281 691.958 260.219 692.25 260.156L692.281 265.906C691.656 266.094 690.927 266.26 690.094 266.406C689.281 266.552 688.344 266.625 687.281 266.625C685.552 266.625 684.021 266.323 682.688 265.719C681.354 265.094 680.312 264.083 679.562 262.688C678.812 261.292 678.438 259.438 678.438 257.125V223.906ZM695.625 249.469V248.75C695.625 246.312 695.979 244.052 696.688 241.969C697.396 239.865 698.417 238.042 699.75 236.5C701.104 234.938 702.75 233.729 704.688 232.875C706.646 232 708.854 231.562 711.312 231.562C713.792 231.562 716 232 717.938 232.875C719.896 233.729 721.552 234.938 722.906 236.5C724.26 238.042 725.292 239.865 726 241.969C726.708 244.052 727.062 246.312 727.062 248.75V249.469C727.062 251.906 726.708 254.167 726 256.25C725.292 258.333 724.26 260.156 722.906 261.719C721.552 263.26 719.906 264.469 717.969 265.344C716.031 266.198 713.833 266.625 711.375 266.625C708.896 266.625 706.677 266.198 704.719 265.344C702.781 264.469 701.135 263.26 699.781 261.719C698.427 260.156 697.396 258.333 696.688 256.25C695.979 254.167 695.625 251.906 695.625 249.469ZM703.156 248.75V249.469C703.156 250.99 703.312 252.427 703.625 253.781C703.938 255.135 704.427 256.323 705.094 257.344C705.76 258.365 706.615 259.167 707.656 259.75C708.698 260.333 709.938 260.625 711.375 260.625C712.771 260.625 713.979 260.333 715 259.75C716.042 259.167 716.896 258.365 717.562 257.344C718.229 256.323 718.719 255.135 719.031 253.781C719.365 252.427 719.531 250.99 719.531 249.469V248.75C719.531 247.25 719.365 245.833 719.031 244.5C718.719 243.146 718.219 241.948 717.531 240.906C716.865 239.865 716.01 239.052 714.969 238.469C713.948 237.865 712.729 237.562 711.312 237.562C709.896 237.562 708.667 237.865 707.625 238.469C706.604 239.052 705.76 239.865 705.094 240.906C704.427 241.948 703.938 243.146 703.625 244.5C703.312 245.833 703.156 247.25 703.156 248.75ZM740.938 238.625V266H733.406V232.188H740.594L740.938 238.625ZM751.281 231.969L751.219 238.969C750.76 238.885 750.26 238.823 749.719 238.781C749.198 238.74 748.677 238.719 748.156 238.719C746.865 238.719 745.729 238.906 744.75 239.281C743.771 239.635 742.948 240.156 742.281 240.844C741.635 241.51 741.135 242.323 740.781 243.281C740.427 244.24 740.219 245.312 740.156 246.5L738.438 246.625C738.438 244.5 738.646 242.531 739.062 240.719C739.479 238.906 740.104 237.312 740.938 235.938C741.792 234.562 742.854 233.49 744.125 232.719C745.417 231.948 746.906 231.562 748.594 231.562C749.052 231.562 749.542 231.604 750.062 231.688C750.604 231.771 751.01 231.865 751.281 231.969ZM774.969 256.844C774.969 256.094 774.781 255.417 774.406 254.812C774.031 254.188 773.312 253.625 772.25 253.125C771.208 252.625 769.667 252.167 767.625 251.75C765.833 251.354 764.188 250.885 762.688 250.344C761.208 249.781 759.938 249.104 758.875 248.312C757.812 247.521 756.99 246.583 756.406 245.5C755.823 244.417 755.531 243.167 755.531 241.75C755.531 240.375 755.833 239.073 756.438 237.844C757.042 236.615 757.906 235.531 759.031 234.594C760.156 233.656 761.521 232.917 763.125 232.375C764.75 231.833 766.562 231.562 768.562 231.562C771.396 231.562 773.823 232.042 775.844 233C777.885 233.938 779.448 235.219 780.531 236.844C781.615 238.448 782.156 240.26 782.156 242.281H774.625C774.625 241.385 774.396 240.552 773.938 239.781C773.5 238.99 772.833 238.354 771.938 237.875C771.042 237.375 769.917 237.125 768.562 237.125C767.271 237.125 766.198 237.333 765.344 237.75C764.51 238.146 763.885 238.667 763.469 239.312C763.073 239.958 762.875 240.667 762.875 241.438C762.875 242 762.979 242.51 763.188 242.969C763.417 243.406 763.792 243.812 764.312 244.188C764.833 244.542 765.542 244.875 766.438 245.188C767.354 245.5 768.5 245.802 769.875 246.094C772.458 246.635 774.677 247.333 776.531 248.188C778.406 249.021 779.844 250.104 780.844 251.438C781.844 252.75 782.344 254.417 782.344 256.438C782.344 257.938 782.021 259.312 781.375 260.562C780.75 261.792 779.833 262.865 778.625 263.781C777.417 264.677 775.969 265.375 774.281 265.875C772.615 266.375 770.74 266.625 768.656 266.625C765.594 266.625 763 266.083 760.875 265C758.75 263.896 757.135 262.49 756.031 260.781C754.948 259.052 754.406 257.26 754.406 255.406H761.688C761.771 256.802 762.156 257.917 762.844 258.75C763.552 259.562 764.427 260.156 765.469 260.531C766.531 260.885 767.625 261.062 768.75 261.062C770.104 261.062 771.24 260.885 772.156 260.531C773.073 260.156 773.771 259.656 774.25 259.031C774.729 258.385 774.969 257.656 774.969 256.844ZM819.375 249.469V248.75C819.375 246.312 819.729 244.052 820.438 241.969C821.146 239.865 822.167 238.042 823.5 236.5C824.854 234.938 826.5 233.729 828.438 232.875C830.396 232 832.604 231.562 835.062 231.562C837.542 231.562 839.75 232 841.688 232.875C843.646 233.729 845.302 234.938 846.656 236.5C848.01 238.042 849.042 239.865 849.75 241.969C850.458 244.052 850.812 246.312 850.812 248.75V249.469C850.812 251.906 850.458 254.167 849.75 256.25C849.042 258.333 848.01 260.156 846.656 261.719C845.302 263.26 843.656 264.469 841.719 265.344C839.781 266.198 837.583 266.625 835.125 266.625C832.646 266.625 830.427 266.198 828.469 265.344C826.531 264.469 824.885 263.26 823.531 261.719C822.177 260.156 821.146 258.333 820.438 256.25C819.729 254.167 819.375 251.906 819.375 249.469ZM826.906 248.75V249.469C826.906 250.99 827.062 252.427 827.375 253.781C827.688 255.135 828.177 256.323 828.844 257.344C829.51 258.365 830.365 259.167 831.406 259.75C832.448 260.333 833.688 260.625 835.125 260.625C836.521 260.625 837.729 260.333 838.75 259.75C839.792 259.167 840.646 258.365 841.312 257.344C841.979 256.323 842.469 255.135 842.781 253.781C843.115 252.427 843.281 250.99 843.281 249.469V248.75C843.281 247.25 843.115 245.833 842.781 244.5C842.469 243.146 841.969 241.948 841.281 240.906C840.615 239.865 839.76 239.052 838.719 238.469C837.698 237.865 836.479 237.562 835.062 237.562C833.646 237.562 832.417 237.865 831.375 238.469C830.354 239.052 829.51 239.865 828.844 240.906C828.177 241.948 827.688 243.146 827.375 244.5C827.062 245.833 826.906 247.25 826.906 248.75ZM867.312 266H859.781V228.938C859.781 226.417 860.25 224.302 861.188 222.594C862.146 220.865 863.51 219.562 865.281 218.688C867.052 217.792 869.146 217.344 871.562 217.344C872.312 217.344 873.052 217.396 873.781 217.5C874.51 217.583 875.219 217.719 875.906 217.906L875.719 223.719C875.302 223.615 874.844 223.542 874.344 223.5C873.865 223.458 873.344 223.438 872.781 223.438C871.635 223.438 870.646 223.656 869.812 224.094C869 224.51 868.375 225.125 867.938 225.938C867.521 226.75 867.312 227.75 867.312 228.938V266ZM874.281 232.188V237.688H854.594V232.188H874.281Z" fill="#04345C"/>
<path d="M1093.24 206.176L1092.05 243.314L1093.06 265.488H1081.01L1082.01 244.774L1081.83 240.212H1058.74L1058.64 243.314L1059.65 265.488H1047.6L1048.6 244.774L1047.6 208.274L1059.83 206.176L1059.01 231.178H1081.65L1081.01 208.274L1093.24 206.176ZM1142.89 266.401L1138.69 249.611H1117.97L1113.41 265.944L1102.37 265.123L1109.94 244.227L1121.53 207.271L1136.96 206.176L1148.1 242.949L1155.31 264.484L1142.89 266.401ZM1129.2 217.308H1128.11L1120.71 240.486H1136.05L1129.2 217.308ZM1190.36 239.938H1191.27L1204.14 206.632L1216.28 206.997L1216.64 244.683L1218.29 267.313H1206.42L1206.88 244.501L1205.87 221.414L1195.29 250.432L1184.51 250.979L1174.66 221.414L1173.84 244.501L1174.47 267.313H1163.52L1164.8 245.961L1165.35 208.366L1179.31 206.176L1190.36 239.938ZM1240.19 222.601L1239.1 244.501L1240.1 265.123L1228.33 267.313L1229.42 245.961L1228.42 224.791L1240.19 222.601Z" fill="#1B1C1D"/>
<path d="M1226.5 210.282C1226.5 208.274 1227.32 206.449 1228.97 204.898C1230.61 203.347 1232.43 202.526 1234.63 202.526C1236.82 202.526 1238.37 203.073 1239.46 204.168C1240.56 205.263 1241.11 206.906 1241.11 209.096C1241.11 211.286 1240.28 213.202 1238.73 214.753C1237.18 216.304 1235.26 217.126 1233.17 217.126C1231.07 217.126 1229.42 216.487 1228.24 215.209C1227.05 213.932 1226.5 212.198 1226.5 210.282Z" fill="#0FD05D"/>
<path d="M985.532 166.6C989.914 171.801 995.208 176.09 1001.23 179.284C1007.44 182.569 1014.1 184.576 1021.13 185.124L1020.77 189.595C1013.19 188.956 1005.89 186.766 999.133 183.207C998.22 182.751 997.216 182.204 996.303 181.656C994.477 183.572 992.743 185.671 991.283 187.952C999.954 192.241 1007.16 199.085 1012.09 207.754C1018.67 219.342 1020.31 232.847 1016.84 245.805C1013.37 258.762 1005.16 269.621 993.747 276.465C985.989 281.027 977.409 283.4 968.829 283.4C964.63 283.4 960.431 282.852 956.233 281.757C943.454 278.381 932.866 270.077 926.294 258.489C919.813 246.9 918.079 233.395 921.547 220.437C925.016 207.48 933.231 196.621 944.64 189.777C956.141 183.025 969.468 181.2 982.246 184.576C983.889 185.032 985.532 185.58 987.084 186.127C988.636 183.664 990.461 181.291 992.469 179.192C988.636 176.455 985.076 173.17 982.064 169.52L985.532 166.6ZM969.65 187.405C961.8 187.405 954.042 189.504 947.014 193.701C936.608 199.906 929.123 209.761 925.929 221.624C922.734 233.486 924.286 245.714 930.219 256.299C936.152 266.792 945.827 274.275 957.328 277.377C961.07 278.381 964.904 278.837 968.737 278.837C976.587 278.837 984.346 276.739 991.374 272.541C1001.78 266.336 1009.26 256.481 1012.46 244.619C1015.65 232.756 1014.1 220.529 1008.17 209.944C1002.24 199.45 992.561 191.967 981.06 188.865C977.317 187.952 973.484 187.405 969.65 187.405ZM966.821 191.237C984.528 207.662 996.029 229.471 999.406 253.652C999.771 256.116 1000.05 258.945 1000.23 261.774C998.859 263.325 997.398 264.785 995.938 266.062C995.847 261.956 995.481 257.759 995.025 254.291C991.83 232.209 981.699 212.134 965.999 196.712C975.218 210.4 980.969 226.095 982.977 242.794C984.254 253.379 983.889 263.872 981.973 274.184C979.234 275.187 976.313 275.826 973.393 276.191C973.393 275.187 973.393 274.184 973.393 273.18C973.393 271.811 973.393 270.351 973.301 268.982C971.658 269.165 970.015 269.256 968.372 269.256C966.547 269.256 964.63 269.165 962.804 268.891C962.987 267.431 963.078 265.88 963.17 264.42C966.456 264.785 969.741 264.876 973.027 264.511C972.023 253.105 969.194 242.155 964.447 231.752C959.61 220.985 953.129 211.404 945.006 203.1C955.137 219.525 960.431 238.322 960.431 257.759C960.431 263.599 959.975 269.53 958.971 275.279C958.606 275.187 958.332 275.096 957.967 275.005C956.78 274.731 955.685 274.366 954.59 273.91C954.955 271.72 955.229 269.53 955.411 267.249C952.399 266.427 949.478 265.241 946.74 263.872C946.831 262.23 946.922 260.496 946.922 258.854C949.661 260.405 952.673 261.682 955.776 262.595C955.867 260.952 955.867 259.31 955.867 257.667C955.867 238.231 950.391 219.616 939.894 203.374C941.902 201.366 944.093 199.541 946.466 197.99C955.776 207.115 963.261 217.7 968.646 229.562C974.579 242.52 977.683 256.299 978.048 270.625C979.508 261.591 979.691 252.375 978.595 243.159C976.313 224.726 969.103 207.389 957.602 192.88C960.523 191.967 963.626 191.42 966.821 191.237ZM933.505 212.59C936.517 218.886 938.799 225.547 940.442 232.391C942.45 240.604 943.454 249.09 943.454 257.576C943.454 260.679 943.271 263.872 942.997 266.975C941.537 265.697 940.077 264.42 938.799 262.96C938.89 261.135 938.981 259.31 938.981 257.485C938.981 243.797 936.243 230.201 930.949 217.791C931.77 215.966 932.592 214.232 933.505 212.59ZM999.68 210.035C1003.79 216.24 1006.43 223.357 1007.44 230.749L1002.97 231.387C1002.05 224.635 999.589 218.156 995.938 212.499L999.68 210.035ZM990.279 199.45C992.378 201.275 994.386 203.191 996.212 205.381L992.743 208.301C991.1 206.385 989.275 204.56 987.358 202.917L990.279 199.45Z" fill="#0FD05D"/>
</svg>
