<svg viewBox="0 0 705.29 310.17" xmlns="http://www.w3.org/2000/svg" xmlns:xlink="http://www.w3.org/1999/xlink" id="Logos" overflow="hidden"><defs></defs><g><g id="b"><path d="M258.18 1.32 259.42 1.32 259.42 245.23 258.18 245.23 258.18 1.32Z" fill="#FFFFFF"/></g><g><path d="M82.64 82.55 78.36 83.47C78.32 82.86 78.29 82.25 78.29 81.64 78.29 77.04 79.54 72.56 81.94 68.65L90.33 76.14C90.48 76.27 90.63 76.4 90.78 76.53 90.27 77.77 89.95 79.11 89.83 80.5 89.55 80.58 89.28 80.65 89 80.73L82.64 82.56ZM98.96 57.05 98.96 68.84C97.79 69.23 96.68 69.79 95.68 70.47 95.3 70.19 94.93 69.91 94.54 69.64L86.02 63.58C89.6 60.16 94.1 57.89 98.96 57.05ZM60.37 87.31C55.6 88.33 50.78 89.36 45.87 90.42 39.2 91.86 38.98 90.55 40.43 84.21 44.53 66.25 47.98 51.13 52.08 33.16 53.93 25.05 55.12 22.98 62.42 18.78 72.57 12.95 80.06 8.64 90.92 2.4 97.67-1.48 98.96-1.19 98.96 7.08L98.96 48.69C91.42 49.66 84.46 53.19 79.19 58.72L75.59 56.16C75.13 55.83 74.92 55.52 74.7 54.99 74.19 53.72 73.9 53.01 72.79 52.12 71.08 50.76 68.58 51.04 67.22 52.75 65.86 54.46 66.14 56.96 67.85 58.32 68.44 58.79 69.08 59.14 69.81 59.33 70.28 59.45 70.76 59.49 71.23 59.57 71.67 59.64 71.97 59.77 72.31 60.07L75.69 63.08C71.98 68.58 70.02 75.01 70.02 81.64 70.02 82.83 70.08 84.02 70.21 85.21L62.93 86.77 60.37 87.32ZM107.52 68.84 107.52 57.05C112.35 57.88 116.81 60.13 120.39 63.51L111.09 70.12C110.96 70.21 110.83 70.31 110.7 70.4 109.72 69.75 108.66 69.22 107.52 68.84ZM128.17 82.7 116.61 80.06C116.46 78.78 116.14 77.56 115.66 76.41 115.77 76.32 115.87 76.22 115.98 76.13L124.49 68.54C126.93 72.48 128.2 76.99 128.2 81.63 128.2 81.98 128.2 82.34 128.18 82.69ZM113.12 19.08C119.34 22.07 123.88 24.26 130.09 27.25 138.77 31.43 147.46 35.61 156.14 39.8 158.28 49.2 160.43 58.59 162.57 67.99 163.85 73.59 164.54 76.6 165.81 82.2 167.81 90.94 167.61 91.7 158.59 89.64L136.31 84.56C136.4 83.59 136.44 82.61 136.44 81.64 136.44 74.96 134.46 68.5 130.7 62.98L133.87 60.15C134.29 59.77 134.65 59.63 135.2 59.55 136.56 59.34 137.31 59.22 138.43 58.33 140.14 56.97 140.42 54.47 139.06 52.76 137.7 51.05 135.2 50.77 133.49 52.13 132.9 52.6 132.42 53.14 132.07 53.82 131.85 54.25 131.71 54.71 131.52 55.15 131.35 55.57 131.16 55.83 130.79 56.09L127.18 58.65C121.92 53.16 114.99 49.66 107.48 48.7L107.48 23.28C107.48 17.32 108.01 16.63 113.09 19.08ZM105.51 94.86C104.77 94.98 104.02 95.05 103.24 95.05 102.51 95.05 101.8 94.99 101.1 94.88 100.97 95.13 100.84 95.37 100.7 95.62L95.36 105.31C97.9 106.16 100.56 106.58 103.24 106.58 105.92 106.58 108.66 106.14 111.24 105.27L105.96 95.7C105.81 95.42 105.66 95.14 105.51 94.86ZM114.85 88.4 126.36 91.03C124.47 95.67 121.21 99.65 117.04 102.43L112.46 91.4C113.39 90.52 114.2 89.51 114.85 88.4ZM80.12 91.03 91.63 88.4C92.31 89.55 93.15 90.6 94.13 91.5 94.03 91.74 93.92 91.98 93.82 92.22L89.55 102.5C85.32 99.72 82.02 95.71 80.12 91.03ZM174.59 111.27C169.09 118.17 166.56 121.34 161.06 128.24 154.8 136.09 149.75 142.42 143.49 150.27 138.99 155.92 135.84 156.09 128.41 156.09L77.91 156.09C68.23 156.09 67.6 156.06 61.69 148.65 55.84 141.31 51.27 135.58 45.41 128.24 40.83 122.5 39.66 121.03 35.08 115.29 27.96 106.36 26.8 103.19 37.83 100.68L71.97 92.89C74.58 100.15 79.67 106.3 86.33 110.24L84.83 113.86C84.61 114.38 84.35 114.66 83.89 114.98 82.76 115.76 82.13 116.2 81.52 117.48 80.57 119.45 81.4 121.82 83.37 122.77 85.34 123.72 87.71 122.89 88.66 120.92 88.99 120.24 89.18 119.54 89.2 118.79 89.21 118.3 89.14 117.83 89.11 117.35 89.08 116.9 89.14 116.58 89.36 116.18L91.31 112.65C95.12 114.11 99.15 114.86 103.24 114.86 107.33 114.86 111.44 114.1 115.28 112.61L117.19 116.08C117.46 116.58 117.52 116.95 117.48 117.51 117.39 118.88 117.34 119.64 117.95 120.93 118.9 122.9 121.27 123.73 123.24 122.78 125.21 121.83 126.04 119.46 125.09 117.49 124.76 116.81 124.34 116.22 123.76 115.73 123.39 115.41 122.98 115.18 122.58 114.9 122.21 114.64 122 114.4 121.82 113.98L120.24 110.17C126.84 106.23 131.89 100.11 134.49 92.89L172.15 101.49C179.46 103.16 178.92 105.83 174.58 111.28Z" fill="#FFFFFF" fill-rule="evenodd"/><path d="M184.8 209.56C186.06 209.19 187.69 208.85 189.68 208.54 191.67 208.22 193.77 208.07 195.96 208.07 198.15 208.07 200.04 208.36 201.52 208.94 203 209.52 204.17 210.34 205.03 211.41 205.89 212.47 206.51 213.74 206.87 215.2 207.24 216.66 207.42 218.29 207.42 220.08L207.42 234.88 199.99 234.88 199.99 220.97C199.99 218.58 199.67 216.88 199.04 215.89 198.41 214.89 197.23 214.39 195.5 214.39 194.97 214.39 194.4 214.41 193.81 214.46 193.21 214.51 192.68 214.57 192.21 214.64L192.21 234.88 184.78 234.88 184.78 209.56ZM171.09 221.72C171.09 219.43 170.63 217.62 169.72 216.31 168.81 215 167.5 214.34 165.81 214.34 164.12 214.34 162.8 215 161.87 216.31 160.94 217.62 160.47 219.42 160.47 221.72 160.47 224.02 160.94 225.83 161.87 227.18 162.8 228.53 164.11 229.2 165.81 229.2 167.51 229.2 168.81 228.53 169.72 227.18 170.63 225.83 171.09 224.01 171.09 221.72ZM178.67 221.72C178.67 223.78 178.37 225.67 177.77 227.38 177.17 229.09 176.31 230.55 175.18 231.77 174.05 232.98 172.7 233.92 171.12 234.59 169.54 235.25 167.77 235.59 165.81 235.59 163.85 235.59 162.13 235.26 160.55 234.59 158.97 233.92 157.62 232.99 156.49 231.77 155.36 230.56 154.48 229.09 153.85 227.38 153.22 225.67 152.9 223.78 152.9 221.72 152.9 219.66 153.22 217.78 153.87 216.09 154.52 214.4 155.42 212.95 156.56 211.75 157.71 210.55 159.07 209.62 160.65 208.96 162.23 208.3 163.95 207.96 165.81 207.96 167.67 207.96 169.44 208.29 171.02 208.96 172.6 209.63 173.95 210.56 175.08 211.75 176.21 212.95 177.09 214.39 177.72 216.09 178.35 217.78 178.67 219.66 178.67 221.72ZM138.3 235.57C132.68 235.57 128.41 234.01 125.47 230.89 122.53 227.77 121.06 223.33 121.06 217.58 121.06 214.72 121.51 212.17 122.41 209.93 123.31 207.69 124.54 205.79 126.1 204.25 127.66 202.71 129.52 201.53 131.68 200.74 133.84 199.94 136.18 199.54 138.71 199.54 140.17 199.54 141.5 199.65 142.7 199.86 143.9 200.08 144.94 200.33 145.84 200.61 146.74 200.89 147.49 201.18 148.08 201.48 148.68 201.78 149.11 202.01 149.38 202.18L147.14 208.46C146.08 207.9 144.84 207.41 143.43 207.01 142.02 206.61 140.41 206.41 138.62 206.41 137.42 206.41 136.25 206.61 135.11 207.01 133.96 207.41 132.95 208.05 132.07 208.93 131.19 209.81 130.48 210.95 129.95 212.34 129.42 213.74 129.15 215.43 129.15 217.42 129.15 219.02 129.32 220.5 129.67 221.88 130.02 223.26 130.58 224.45 131.36 225.44 132.14 226.44 133.16 227.23 134.43 227.81 135.69 228.39 137.22 228.68 139.02 228.68 140.15 228.68 141.16 228.61 142.06 228.48 142.96 228.35 143.75 228.19 144.45 228.01 145.15 227.83 145.76 227.62 146.29 227.39 146.82 227.16 147.3 226.94 147.74 226.74L149.88 232.97C148.78 233.63 147.24 234.23 145.24 234.76 143.25 235.29 140.94 235.56 138.31 235.56ZM108.75 219.12C108.72 218.49 108.61 217.87 108.43 217.28 108.25 216.68 107.96 216.15 107.58 215.68 107.2 215.21 106.72 214.83 106.13 214.53 105.55 214.23 104.83 214.08 103.96 214.08 103.09 214.08 102.41 214.22 101.82 214.5 101.22 214.78 100.72 215.16 100.32 215.62 99.92 216.08 99.61 216.63 99.4 217.24 99.18 217.85 99.03 218.48 98.93 219.11L108.75 219.11ZM91.3 221.97C91.3 219.64 91.66 217.61 92.37 215.86 93.08 214.12 94.02 212.66 95.19 211.5 96.35 210.34 97.69 209.46 99.2 208.86 100.71 208.26 102.27 207.96 103.86 207.96 107.58 207.96 110.52 209.1 112.68 211.37 114.84 213.65 115.92 216.99 115.92 221.41 115.92 221.84 115.9 222.32 115.87 222.83 115.84 223.35 115.8 223.8 115.77 224.2L98.92 224.2C99.09 225.73 99.8 226.94 101.06 227.84 102.32 228.74 104.02 229.19 106.14 229.19 107.5 229.19 108.84 229.07 110.15 228.82 111.46 228.57 112.53 228.26 113.37 227.9L114.37 233.93C113.97 234.13 113.44 234.33 112.78 234.53 112.12 234.73 111.38 234.9 110.56 235.05 109.75 235.2 108.87 235.32 107.94 235.42 107.01 235.52 106.08 235.57 105.15 235.57 102.79 235.57 100.74 235.22 98.99 234.52 97.25 233.82 95.8 232.87 94.65 231.65 93.5 230.44 92.66 229 92.11 227.34 91.56 225.68 91.29 223.88 91.29 221.96ZM86.42 221.77C86.42 223.86 86.11 225.76 85.5 227.45 84.89 229.14 84 230.59 82.83 231.79 81.67 232.99 80.24 233.91 78.54 234.56 76.85 235.21 74.92 235.53 72.76 235.53 71.86 235.53 70.92 235.49 69.94 235.41 68.96 235.33 68 235.22 67.05 235.09 66.1 234.96 65.2 234.8 64.33 234.62 63.47 234.44 62.7 234.25 62.04 234.05L62.04 197.42 69.47 196.22 69.47 209.28C70.3 208.91 71.16 208.63 72.06 208.43 72.96 208.23 73.92 208.13 74.95 208.13 76.81 208.13 78.46 208.45 79.88 209.1 81.31 209.75 82.51 210.67 83.47 211.87 84.43 213.07 85.17 214.5 85.66 216.18 86.16 217.86 86.41 219.73 86.41 221.79ZM78.84 221.57C78.84 216.78 77.08 214.39 73.56 214.39 72.8 214.39 72.04 214.49 71.29 214.69 70.54 214.89 69.94 215.14 69.47 215.44L69.47 228.95C69.84 229.02 70.3 229.07 70.87 229.13 71.43 229.18 72.05 229.2 72.71 229.2 74.74 229.2 76.27 228.5 77.3 227.11 78.33 225.71 78.85 223.87 78.85 221.58ZM54.67 233.98C53.41 234.35 51.78 234.69 49.79 235 47.8 235.32 45.7 235.47 43.51 235.47 41.32 235.47 39.43 235.17 37.95 234.57 36.47 233.97 35.3 233.13 34.44 232.05 33.58 230.97 32.96 229.68 32.6 228.19 32.23 226.69 32.05 225.05 32.05 223.26L32.05 208.66 39.48 208.66 39.48 222.37C39.48 224.76 39.8 226.49 40.43 227.55 41.06 228.61 42.24 229.14 43.97 229.14 44.5 229.14 45.07 229.12 45.66 229.07 46.26 229.02 46.79 228.96 47.25 228.9L47.25 208.66 54.68 208.66 54.68 233.98ZM20.39 234.88C19.69 233.75 18.87 232.53 17.92 231.22 16.97 229.91 15.94 228.6 14.83 227.28 13.72 225.97 12.56 224.7 11.37 223.49 10.17 222.28 8.98 221.21 7.78 220.28L7.78 234.88 0 234.88 0 200.34 7.78 200.34 7.78 213.4C9.81 211.27 11.84 209.06 13.89 206.75 15.93 204.44 17.84 202.31 19.6 200.34L28.82 200.34C26.46 203.13 24.09 205.82 21.72 208.41 19.34 211 16.84 213.61 14.22 216.24 16.98 218.53 19.64 221.26 22.22 224.41 24.8 227.57 27.26 231.06 29.62 234.88L20.4 234.88Z" fill="#FFFFFF"/></g><g><path d="M335.27 207.02 330.29 213.05C328.18 210.37 325.12 208.74 321.77 208.55 316.41 208.55 312.1 212.86 312.1 218.22L312.1 218.6C312.1 224.35 316.22 228.56 321.77 228.56 325.03 228.37 328.19 226.93 330.29 224.44L335.46 229.8C331.73 233.53 326.75 235.83 321.38 236.02 311.04 236.02 303.38 228.55 303.38 218.3 303.38 208.05 311.23 200.97 321.77 200.97 326.94 201.16 331.73 203.27 335.37 206.91L335.37 206.91 335.27 207.01ZM339.58 235.75 339.58 199.46 348.1 199.46 348.1 235.75 339.58 235.75ZM381.71 222.53C381.71 230.77 375.96 236.13 367.25 236.13 358.54 236.13 352.79 230.77 352.79 222.53 352.79 214.29 358.54 209.12 367.25 209.12 375.96 209.12 381.71 214.48 381.71 222.53L381.71 222.53ZM361.41 222.72C361.41 226.84 363.71 229.52 367.35 229.52 370.99 229.52 373.29 226.84 373.29 222.72 373.29 218.6 370.99 215.92 367.35 215.92 363.71 215.92 361.41 218.6 361.41 222.72L361.41 222.72ZM412.07 235.75 403.55 235.75 403.55 231.44C401.73 234.5 398.38 236.23 395.03 236.04 389.28 236.04 385.55 232.11 385.55 226.08L385.55 209.51 394.07 209.51 394.07 223.78C394.07 226.84 395.7 228.76 398.57 228.76 401.44 228.76 403.74 226.08 403.74 222.54L403.74 209.52 412.26 209.52 412.26 235.76 412.07 235.76ZM445.49 235.75 436.97 235.75 436.97 232.4C434.96 234.89 432.18 236.33 429.12 236.13 421.65 236.13 416.77 230.58 416.77 222.34 416.77 214.1 421.56 208.93 428.93 208.93 432.19 208.74 435.15 210.17 437.17 212.66L437.17 199.25 445.69 199.25 445.69 235.64 445.5 235.64 445.5 235.74ZM436.87 222.72C436.87 218.6 434.57 215.92 430.93 215.92 427.29 215.92 424.99 218.6 424.99 222.72 424.99 226.84 427.29 229.71 430.93 229.71 434.47 229.52 436.87 226.84 436.87 222.72ZM476.32 235.75 460.42 214.68 460.42 235.75 452.18 235.75 452.18 201.47 459.84 201.47 475.74 222.73 475.74 201.47 483.98 201.47 483.98 235.75 476.32 235.75ZM514.44 218.41 514.44 235.74 506.2 235.74 506.2 232.68C504.57 234.98 501.6 236.03 498.16 236.03 492.41 236.03 489.06 232.68 489.06 227.79 489.06 222.9 492.6 219.94 499.21 219.75L506.2 219.75 506.2 219.37C506.2 216.69 504.57 215.25 501.03 215.25 498.35 215.44 495.48 216.11 493.18 217.36L490.88 211.61C494.61 209.6 498.92 208.55 503.04 208.55 510.22 208.74 514.44 212.28 514.44 218.22L514.44 218.41ZM506.01 226.84 506.01 224.54 500.65 224.54C498.16 224.54 496.92 225.4 496.92 227.41 496.92 229.42 498.16 230.47 500.65 230.47 502.95 230.66 505.25 229.23 506.01 226.93L506.01 226.83ZM537.23 234.5C535.12 235.74 532.63 236.32 530.05 236.32 524.88 236.32 521.34 233.45 521.34 227.89L521.34 216.3 517.61 216.3 517.61 210.75 521.34 210.75 521.34 203.47 529.77 203.47 529.77 210.75 536.76 210.75 536.76 216.5 529.77 216.5 529.77 226.84C529.77 228.85 530.63 229.9 532.07 229.71 533.12 229.52 534.18 229.33 535.33 228.85L537.34 234.6 537.24 234.5ZM550.06 201.85C550.25 204.34 548.24 206.35 545.75 206.35L545.56 206.35C543.07 206.35 541.06 204.24 541.06 201.75 541.06 199.26 543.07 197.25 545.56 197.25 547.86 197.06 549.87 198.88 550.06 201.18L550.06 201.85 550.06 201.85ZM541.35 235.75 541.35 209.32 549.78 209.32 549.78 235.75 541.35 235.75ZM562.99 235.75 553.03 209.32 561.74 209.32 567.49 228.09 573.24 209.32 581.67 209.32 571.71 235.75 563 235.75ZM609.53 224.83 590.95 224.83C591.52 227.7 594.21 229.81 597.17 229.81 600.13 229.81 601.77 228.76 603.59 227.13L608.09 231.44C605.03 234.7 600.91 236.23 596.69 236.04 588.17 236.04 582.61 230.68 582.61 222.63 582.61 214.58 588.36 209.03 596.4 209.03 604.44 209.03 610.19 215.06 609.62 224.74L609.62 224.74 609.52 224.84ZM601.49 220.23C601.68 217.55 599.67 215.06 596.99 214.87L596.42 214.87C593.36 214.87 591.44 216.98 590.87 220.23L601.5 220.23ZM644.2 207.02 639.22 213.05C637.11 210.37 634.05 208.74 630.7 208.55 625.34 208.55 621.03 212.86 621.03 218.22L621.03 218.6C621.03 224.35 625.15 228.56 630.7 228.56 633.96 228.37 637.12 226.93 639.22 224.44L644.39 229.8C640.66 233.53 635.68 235.83 630.31 236.02 619.97 236.02 612.31 228.55 612.31 218.3 612.31 208.05 620.16 200.97 630.7 200.97 635.68 201.16 640.56 203.27 644.3 206.91L644.2 207.01ZM673.69 222.53C673.69 230.77 667.94 236.13 659.23 236.13 650.52 236.13 644.77 230.77 644.77 222.53 644.77 214.29 650.52 209.12 659.23 209.12 667.94 209.12 673.69 214.48 673.69 222.53ZM653.49 222.72C653.49 226.84 655.79 229.52 659.43 229.52 663.07 229.52 665.37 226.84 665.37 222.72 665.37 218.6 663.07 215.92 659.43 215.92 655.79 215.92 653.49 218.6 653.49 222.72L653.49 222.72ZM705.29 219.08 705.29 235.65 696.86 235.65 696.86 221.38C696.86 218.32 695.04 216.4 692.26 216.4 689.48 216.4 687.28 218.51 686.9 221.76L686.9 235.84 678.38 235.84 678.38 209.41 686.9 209.41 686.9 213.72C688.72 210.66 692.26 208.93 695.81 209.12 701.36 208.93 705.29 212.85 705.29 219.08L705.29 219.08Z" fill="#FFFFFF"/><g><g><path d="M554.32 63.44 574.24 63.44 574.24 16.83 527.64 16.83 527.64 36.76 554.32 36.76 554.32 63.44Z" fill="#FFFFFF"/><path d="M454.35 63.26 454.35 36.76 480.86 36.76 481.03 36.93 481.03 16.83 434.43 16.83 434.43 63.44 454.53 63.44 454.35 63.26Z" fill="#FFFFFF"/><path d="M574.24 110.04 554.15 110.04 554.32 110.22 554.32 136.72 554.32 136.72 527.81 136.72 527.64 136.55 527.64 156.65 574.24 156.65 574.24 110.04Z" fill="#FFFFFF"/><path d="M481.03 156.65 481.03 136.72 454.35 136.72 454.35 110.04 434.43 110.04 434.43 156.65 481.03 156.65Z" fill="#FFFFFF"/></g><g opacity="0.8"><path d="M483.46 110.04 510.14 136.72 481.03 136.72 481.03 156.65 527.64 156.65 527.64 136.55 501.13 110.04 483.46 110.04Z" fill="#FFFFFF"/><path d="M507.54 63.44 525.21 63.44 503.21 41.44 498.53 36.76 507.71 36.76 527.64 36.76 527.64 16.83 481.03 16.83 481.03 36.93 494.37 50.27 507.54 63.44Z" fill="#FFFFFF"/><path d="M454.35 110.04 454.35 90.12 454.35 80.94 459.03 85.44 481.03 107.62 481.03 89.95 467.87 76.78 454.53 63.44 434.43 63.44 434.43 110.04 454.35 110.04Z" fill="#FFFFFF"/><path d="M527.64 83.54 554.15 110.04 574.24 110.04 574.24 63.44 554.32 63.44 554.32 92.54 527.64 65.86 527.64 83.54Z" fill="#FFFFFF"/></g></g></g></g><g><path d="M236.24 294.31 241.13 289.53C241.87 290.9 243.36 291.88 244.73 291.88 246.57 291.88 247.9 290.59 247.9 288.75L247.9 271.41 255.5 271.41 255.5 289.54C255.5 294.94 251.47 298.78 245.75 298.78 242.11 298.78 238.15 296.94 236.24 294.32Z" fill="#FFFFFF"/><path d="M278.89 286.37 278.89 298.31 271.65 298.31 271.65 296.86C270.28 298.11 268.36 298.78 266.44 298.78 262.09 298.78 258.73 296.12 258.73 292.32 258.73 288.52 262.49 285.59 267.38 285.59 268.71 285.59 270.2 285.9 271.65 286.49L271.65 286.37C271.65 284.61 270.12 283.59 267.5 283.59 265.74 283.59 264.17 283.98 262.68 284.72L260.29 279.98C263.11 278.57 266.12 277.59 269.53 277.59 274.66 277.59 278.89 280.84 278.89 286.36ZM271.64 291.93 271.64 290.91C270.74 290.44 269.6 290.17 268.43 290.17 266.98 290.17 265.89 290.99 265.89 292.13 265.89 293.19 266.91 293.93 268.28 293.93 270.12 293.93 271.49 293.11 271.65 291.93Z" fill="#FFFFFF"/><path d="M306.33 288.17C306.33 294.4 302.49 298.78 297.05 298.78 294.43 298.78 292.19 297.72 290.59 295.92L290.59 305.04 283.03 305.04 283.03 278.06 290.59 278.06 290.59 280.45C292.2 278.65 294.43 277.59 297.05 277.59 302.49 277.59 306.33 281.98 306.33 288.16ZM299.13 288.17C299.13 285.66 297.29 283.86 294.67 283.86 292.28 283.86 290.6 285.66 290.6 288.17 290.6 290.68 292.28 292.52 294.67 292.52 297.29 292.52 299.13 290.72 299.13 288.17Z" fill="#FFFFFF"/><path d="M328.37 286.37 328.37 298.31 321.13 298.31 321.13 296.86C319.76 298.11 317.84 298.78 315.92 298.78 311.57 298.78 308.21 296.12 308.21 292.32 308.21 288.52 311.97 285.59 316.86 285.59 318.19 285.59 319.68 285.9 321.13 286.49L321.13 286.37C321.13 284.61 319.6 283.59 316.98 283.59 315.22 283.59 313.65 283.98 312.16 284.72L309.77 279.98C312.59 278.57 315.6 277.59 319.01 277.59 324.14 277.59 328.37 280.84 328.37 286.36ZM321.13 291.93 321.13 290.91C320.23 290.44 319.09 290.17 317.92 290.17 316.47 290.17 315.38 290.99 315.38 292.13 315.38 293.19 316.4 293.93 317.77 293.93 319.61 293.93 320.98 293.11 321.14 291.93Z" fill="#FFFFFF"/><path d="M353.24 285.43 353.24 298.31 346.04 298.31 346.04 287.19C346.04 285.23 344.79 283.86 342.99 283.86 341.31 283.86 340.09 285.15 340.09 286.95L340.09 298.3 332.53 298.3 332.53 278.06 340.09 278.06 340.09 280.1C341.34 278.53 343.38 277.59 345.81 277.59 350.16 277.59 353.25 280.84 353.25 285.42Z" fill="#FFFFFF"/><path d="M367.52 292.16 377.5 284.96C380.32 282.92 380.99 281.71 380.99 280.3 380.99 278.81 379.7 277.83 377.94 277.83 375.63 277.83 373.83 278.93 371.75 281L367.05 276.26C370.03 272.74 373.67 270.93 378.13 270.93 384.51 270.93 388.82 274.77 388.82 279.97 388.82 283.49 387.41 286.23 382.63 289.29L379.14 291.52 389.05 291.52 389.05 298.29 367.51 298.29 367.51 292.14Z" fill="#FFFFFF"/><path d="M392.42 284.84C392.42 276.7 397.67 270.94 405.1 270.94 412.53 270.94 417.79 276.7 417.79 284.84 417.79 292.98 412.54 298.78 405.1 298.78 397.66 298.78 392.42 293.02 392.42 284.84ZM409.96 284.84C409.96 280.73 407.96 277.83 405.1 277.83 402.24 277.83 400.25 280.73 400.25 284.84 400.25 288.95 402.25 291.89 405.1 291.89 407.95 291.89 409.96 288.95 409.96 284.84Z" fill="#FFFFFF"/><path d="M420.54 292.16 430.52 284.96C433.34 282.92 434 281.71 434 280.3 434 278.81 432.71 277.83 430.95 277.83 428.64 277.83 426.84 278.93 424.76 281L420.06 276.26C423.04 272.74 426.68 270.93 431.14 270.93 437.52 270.93 441.83 274.77 441.83 279.97 441.83 283.49 440.42 286.23 435.64 289.29L432.16 291.52 442.07 291.52 442.07 298.29 420.53 298.29 420.53 292.14Z" fill="#FFFFFF"/><path d="M468.55 289.19C468.55 295.06 463.77 298.78 457.7 298.78 449.48 298.78 445.45 293.34 445.45 285.35 445.45 276.7 450.46 270.94 458.8 270.94 462.21 270.94 465.1 271.96 467.45 273.64L464 279.36C462.39 278.19 460.91 277.56 458.87 277.56 456.01 277.56 454.25 279.2 453.58 282.22 455.15 281.2 457.3 280.54 459.41 280.54 464.42 280.54 468.53 283.83 468.53 289.19ZM460.72 289.5C460.72 287.66 458.96 286.6 457 286.6 455.47 286.6 454.18 287.38 453.44 288.68 453.79 291.3 454.77 292.36 457.2 292.36 459.31 292.36 460.72 291.15 460.72 289.5Z" fill="#FFFFFF"/></g><path d="M484.47 286.85 705.3 286.85 705.3 287.73 484.47 287.73 484.47 286.85Z" fill="#FFFFFF"/><path d="M0.59 286.85 220.49 286.85 220.49 287.74 0.59 287.74 0.59 286.85Z" fill="#FFFFFF"/></svg>